# This file uses centimeters as units for non-parametric coordinates.

mtllib smallerrow.mtl
g default
v -0.500000 0.000000 0.000000
v -0.057054 0.000000 0.500000
v -0.278968 0.000000 0.000000
v -0.057054 0.000000 -0.500000
v -0.091918 0.000000 -0.172433
v -0.091918 0.000000 0.172433
vt 0.489046 0.028211
vt 0.952890 0.439122
vt 0.489047 0.233258
vt 0.025207 0.439127
vt 0.329085 0.406783
vt 0.649011 0.406781
vn 0.000000 1.000000 0.000000
vn 0.000000 1.000000 0.000000
vn 0.000000 1.000000 0.000000
vn 0.000000 1.000000 0.000000
vn 0.000000 1.000000 0.000000
vn 0.000000 1.000000 0.000000
s 1
g pPlane1
usemtl initialShadingGroup
f 2/2/1 6/6/2 3/3/3 1/1/4
f 1/1/4 3/3/3 5/5/5 4/4/6
